<svg id="Capa_1" data-name="Capa 1" xmlns="http://www.w3.org/2000/svg" width="67.7" height="72" viewBox="0 0 67.7 72">
  <defs>
    <style>
      .cls-1 {
        fill: #fff;
      }

      .cls-2 {
        fill: #024ce7;
      }
    </style>
  </defs>
  <title>logo-04</title>
  <circle class="cls-1" cx="34.8" cy="35.7" r="25.6"/>
  <g>
    <path class="cls-2" d="M15.8,27.8h6.7c3.9,0,6.5,2,6.5,5.5h0C29,37,26.1,39,22.2,39H20.1v4.5H15.8Zm6.3,7.8c1.6,0,2.5-.8,2.5-2h0c0-1.3-.9-2-2.5-2h-2v4.1Z"/>
    <path class="cls-2" d="M29.6,27.8h4.6l2.7,9.1L40,27.8h3.7l3,9.1,2.7-9.1h4.5L48.7,43.6H44.9l-3.1-9-3.2,9H34.9Z"/>
  </g>
</svg>
